{"title":"Ghost.Rider.Spirit.of.Vengeance.2012.TS.READNFO[LEAKED].XviD-SiC","uid":7046153,"size":746719270,"categoryP":"video","categoryS":"movies","magnet":"?xt=urn:btih:ed047b7e356bebfb5dd329a588dc50e2272a966a&amp;dn=Ghost.Rider.Spirit.of.Vengeance.2012.TS.READNFO%5BLEAKED%5D.XviD-SiC&amp;tr=udp%3A%2F%2Ftracker.openbittorrent.com%3A80&amp;tr=udp%3A%2F%2Fopen.demonii.com%3A1337&amp;tr=udp%3A%2F%2Ftracker.coppersurfer.tk%3A6969&amp;tr=udp%3A%2F%2Fexodus.desync.com%3A6969","seeders":3,"leechers":0,"uploader":"SaM","files":5,"time":1329749664,"description":"\nIMDB Link: &lt;a href=&quot;\nhttp://www.imdb.com/title/tt1071875/&quot; rel=&quot;nofollow&quot; target=&quot;_NEW&quot;&gt;\nhttp://www.imdb.com/title/tt1071875/&lt;/a&gt;\n\nDescription:\nAs Johnny Blaze hides out in Eastern Europe, he is called upon to stop the devil, who is trying to take human form.\n\nGeneral:\nComplete name : Ghost.Rider.Spirit.of.Vengeance.2012.TS.READNFO.XviD-SiC.avi\nFormat : AVI\nFormat/Info : Audio Video Interleave\nFile size : 702 MiB\nDuration : 1h 19mn\nOverall bit rate : 1 230 Kbps\n\nVideo\nID : 0\nFormat : MPEG-4 Visual\nFormat profile : Advanced Simple@L5\nFormat settings, BVOP : 2\nFormat settings, QPel : No\nFormat settings, GMC : No warppoints\nFormat settings, Matrix : Default (H.263)\nMuxing mode : Packed bitstream\nCodec ID : XVID\nCodec ID/Hint : XviD\nDuration : 1h 19mn\nBit rate : 1 093 Kbps\nWidth : 640 pixels\nHeight : 272 pixels\nDisplay aspect ratio : 2.35:1\nFrame rate : 25.000 fps\nColor space : YUV\nChroma subsampling : 4:2:0\nBit depth : 8 bits\nScan type : Progressive\nCompression mode : Lossy\nBits/(Pixel*Frame) : 0.251\nStream size : 624 MiB (89%)\nWriting library : XviD 64\n\nAudio\nID : 1\nFormat : MPEG Audio\nFormat version : Version 1\nFormat profile : Layer 3\nMode : Joint stereo\nMode extension : MS Stereo\nCodec ID : 55\nCodec ID/Hint : MP3\nDuration : 1h 19mn\nBit rate mode : Constant\nBit rate : 128 Kbps\nChannel(s) : 2 channels\nSampling rate : 44.1 KHz\nCompression mode : Lossy\nStream size : 73.1 MiB (10%)\nAlignment : Split accross interleaves\nInterleave, duration : 40 ms (1.00 video frame)\n\nScreenshots:\n &lt;a href=&quot;\nhttp://www.host-images.com/u/files/huna13ag0drua6l3wqgu.png&quot; rel=&quot;nofollow&quot; target=&quot;_NEW&quot;&gt;\nhttp://www.host-images.com/u/files/huna13ag0drua6l3wqgu.png&lt;/a&gt;\n &lt;a href=&quot;\nhttp://www.host-images.com/u/files/z64zk33zby8i1fw4832k.png&quot; rel=&quot;nofollow&quot; target=&quot;_NEW&quot;&gt;\nhttp://www.host-images.com/u/files/z64zk33zby8i1fw4832k.png&lt;/a&gt;\n &lt;a href=&quot;\nhttp://www.host-images.com/u/files/7crf6ed2n2jtb1985pik.png&quot; rel=&quot;nofollow&quot; target=&quot;_NEW&quot;&gt;\nhttp://www.host-images.com/u/files/7crf6ed2n2jtb1985pik.png&lt;/a&gt;\n &lt;a href=&quot;\nhttp://www.host-images.com/u/files/l0yp7gq6dztlzwwmml7x.png&quot; rel=&quot;nofollow&quot; target=&quot;_NEW&quot;&gt;\nhttp://www.host-images.com/u/files/l0yp7gq6dztlzwwmml7x.png&lt;/a&gt;\n &lt;a href=&quot;\nhttp://www.host-images.com/u/files/kj525ey2s57mbp8334hy.png&quot; rel=&quot;nofollow&quot; target=&quot;_NEW&quot;&gt;\nhttp://www.host-images.com/u/files/kj525ey2s57mbp8334hy.png&lt;/a&gt;","torrent":{"xt":"urn:btih:ed047b7e356bebfb5dd329a588dc50e2272a966a","amp;dn":"Ghost.Rider.Spirit.of.Vengeance.2012.TS.READNFO%5BLEAKED%5D.XviD-SiC","amp;tr":["udp%3A%2F%2Ftracker.openbittorrent.com%3A80","udp%3A%2F%2Fopen.demonii.com%3A1337","udp%3A%2F%2Ftracker.coppersurfer.tk%3A6969","udp%3A%2F%2Fexodus.desync.com%3A6969"],"infoHash":"ed047b7e356bebfb5dd329a588dc50e2272a966a","infoHashBuffer":{"type":"Buffer","data":[237,4,123,126,53,107,235,251,93,211,41,165,136,220,80,226,39,42,150,106]},"announce":[],"urlList":[]}}